<svg width="25" height="25" viewBox="0 0 25 25" fill="none" xmlns="http://www.w3.org/2000/svg">
<g id="Icon" clip-path="url(#clip0_1_2700)">
<path id="Vector" d="M22.4891 8.60315C22.4891 6.71252 21.9735 5.47815 20.9422 4.90002C19.911 4.3219 18.8641 4.03284 17.8016 4.03284C17.3016 4.03284 16.7938 4.15002 16.2782 4.3844C15.7625 4.61877 15.2821 4.89612 14.8367 5.21643C14.3914 5.53674 13.9969 5.86877 13.6532 6.21252C13.2938 6.55627 13.0282 6.82971 12.8563 7.03284C12.7 7.22034 12.4813 7.31409 12.2 7.31409C11.9188 7.31409 11.7 7.22034 11.5438 7.03284C11.3719 6.82971 11.1063 6.55627 10.7469 6.21252C10.4032 5.86877 10.0086 5.53674 9.56331 5.21643C9.118 4.89612 8.63753 4.61877 8.1219 4.3844C7.60628 4.15002 7.09846 4.03284 6.59846 4.03284C5.53596 4.03284 4.48909 4.3219 3.45784 4.90002C2.42659 5.47815 1.91096 6.71252 1.91096 8.60315C1.91096 9.21252 2.04378 9.79846 2.3094 10.361C2.5594 10.9391 2.84065 11.4469 3.15315 11.8844C3.46565 12.3219 3.75471 12.6735 4.02034 12.9391C4.28596 13.2047 4.41878 13.3453 4.41878 13.361L12.2 20.861L19.9578 13.361C19.9735 13.3453 20.1141 13.2047 20.3797 12.9391C20.6453 12.6735 20.9344 12.3219 21.2469 11.8844C21.5594 11.4469 21.8407 10.9391 22.0907 10.361C22.3563 9.79846 22.4891 9.21252 22.4891 8.60315ZM24.2 8.60315C24.2 9.40002 24.0438 10.1578 23.7313 10.8766C23.4344 11.5953 23.0946 12.2281 22.7117 12.775C22.3289 13.3219 21.9813 13.7594 21.6688 14.0875C21.3407 14.4156 21.161 14.5953 21.1297 14.6266L12.786 22.6656C12.7078 22.7438 12.618 22.8024 12.5164 22.8414C12.4149 22.8805 12.3094 22.9 12.2 22.9C12.0907 22.9 11.9852 22.8805 11.8836 22.8414C11.7821 22.8024 11.6922 22.7438 11.6141 22.6656L3.2469 14.6031C3.23128 14.5719 3.0594 14.3922 2.73128 14.0641C2.40315 13.736 2.05159 13.3024 1.67659 12.7633C1.30159 12.2242 0.965652 11.5953 0.668777 10.8766C0.356277 10.1578 0.200027 9.40002 0.200027 8.60315C0.200027 7.61877 0.348465 6.73596 0.64534 5.95471C0.92659 5.18909 1.34456 4.53674 1.89925 3.99768C2.45393 3.45862 3.1219 3.04846 3.90315 2.76721C4.70003 2.47034 5.59846 2.3219 6.59846 2.3219C7.77034 2.3219 8.86409 2.67346 9.87971 3.37659C10.8953 4.07971 11.6688 4.6969 12.2 5.22815C12.7313 4.6969 13.5047 4.07971 14.5203 3.37659C15.536 2.67346 16.6297 2.3219 17.8016 2.3219C18.8016 2.3219 19.7 2.47034 20.4969 2.76721C21.2782 3.04846 21.9461 3.45862 22.5008 3.99768C23.0555 4.53674 23.4735 5.18909 23.7547 5.95471C24.0516 6.73596 24.2 7.61877 24.2 8.60315Z" fill="#F49159"/>
</g>
<defs>
<clipPath id="clip0_1_2700">
<rect width="24" height="24" fill="white" transform="matrix(1 0 0 -1 0.200027 24.4)"/>
</clipPath>
</defs>
</svg>
