<svg width="16" height="17" viewBox="0 0 16 17" fill="none" xmlns="http://www.w3.org/2000/svg">
<g id="Icon">
<path id="Vector" d="M8 15.2C7.92708 15.2 7.85677 15.187 7.78906 15.1609C7.72135 15.1349 7.66146 15.0958 7.60938 15.0438L2.03125 9.66876C2.02083 9.64793 1.90625 9.52814 1.6875 9.30939C1.46875 9.09064 1.23438 8.80157 0.984375 8.4422C0.734375 8.08282 0.510417 7.66355 0.3125 7.18439C0.104167 6.70522 0 6.20001 0 5.66876C0 5.01251 0.0989583 4.42397 0.296875 3.90314C0.484375 3.39272 0.763021 2.95782 1.13281 2.59845C1.5026 2.23907 1.94792 1.96564 2.46875 1.77814C3 1.58022 3.59896 1.48126 4.26562 1.48126C5.04688 1.48126 5.77604 1.71564 6.45312 2.18439C7.13021 2.65314 7.64583 3.0646 8 3.41876C8.35417 3.0646 8.86979 2.65314 9.54688 2.18439C10.224 1.71564 10.9531 1.48126 11.7344 1.48126C12.401 1.48126 13 1.58022 13.5312 1.77814C14.0521 1.96564 14.4974 2.23907 14.8672 2.59845C15.237 2.95782 15.5156 3.39272 15.7031 3.90314C15.901 4.42397 16 5.01251 16 5.66876C16 6.20001 15.8958 6.70522 15.6875 7.18439C15.4896 7.66355 15.263 8.08543 15.0078 8.45001C14.7526 8.8146 14.5208 9.10626 14.3125 9.32501C14.0938 9.54376 13.974 9.66355 13.9531 9.68439L8.39062 15.0438C8.33854 15.0958 8.27865 15.1349 8.21094 15.1609C8.14323 15.187 8.07292 15.2 8 15.2Z" fill="#F49159"/>
</g>
</svg>
